<?xml version="1.0" encoding="UTF-8"?>
<svg enable-background="new 0 0 194.3203 248.132" version="1.1" viewBox="0 0 266.4 23.242" xml:space="preserve" xmlns="http://www.w3.org/2000/svg" xmlns:cc="http://creativecommons.org/ns#" xmlns:dc="http://purl.org/dc/elements/1.1/" xmlns:rdf="http://www.w3.org/1999/02/22-rdf-syntax-ns#"><metadata><rdf:RDF><cc:Work rdf:about=""><dc:format>image/svg+xml</dc:format><dc:type rdf:resource="http://purl.org/dc/dcmitype/StillImage"/><dc:title/></cc:Work></rdf:RDF></metadata>
<g transform="matrix(.093668 0 0 .093668 190.97 0)">
	<path d="m49.803 75.295c7.0586 2.9043 14.119 3.583 19.812 3.5977 0.9648-1e-3 1.8887-0.0239 2.7715-0.0606v33.101c8.0547-16.362 5.2402-41.683 4.1074-49.499-1.6484 0.2212-4.0879 0.4614-6.8789 0.458-5.8047 0.0376-12.869-1.1304-17.664-4.5156-0.2343-0.1631-0.4609-0.335-0.6875-0.5073l-19.396 1.0649c4.207 8.314 11.102 13.586 17.936 16.361z"/>
	<path d="m35.514 27.415c-2.539-0.0825-4.8339 1.0303-6.3593 2.8272l12.014-0.2134c-1.4043-1.5434-3.4043-2.5415-5.6543-2.6138z"/>
	<path d="m124.81 31.148c0.08 0.8276 0.125 1.666 0.125 2.5141 0 8.6001-4.2832 16.213-10.822 20.834l5.1523-0.0864 14.449 0.1313 0.9589-2.2983 0.5-7.5h3v7.5l-0.666 2.3325 18.428 0.1675 14.613 0.1972 1.125-2.6972 0.5-7.5h3v7.5l-0.7851 2.749 17.637 0.2383 2.2969-21.604-34.982-3.8867-4.4161-0.1724v6.1763l-3-1-1-5.3321-22.81-0.8891c-0.7441 1.2304-1.9121 2.1762-3.3027 2.626z"/>
	<path d="m59.57 55.41 25.883-0.4336c-6.9316-4.5625-11.522-12.41-11.522-21.314 0-0.8481 0.0449-1.686 0.125-2.5132-0.1836-0.0591-0.3633-0.1264-0.5391-0.2026l-16.246 0.7964-1.0157 0.018v6.9825l-3-1-1.1093-5.9097-35.314 0.627-2.9102 7.0327-2.0175-6.9453-10.051 0.1782-1.8535 25.956 10.219-0.5615 0.7031-3.6274-0.5-5h2.25l0.75 5.25 0.1231 3.1948z"/>
	<path d="m99.432 83.129c9.1113 0 15.354-15.828 17.23-21.267h-34.461c1.877 5.439 8.1192 21.267 17.23 21.267z"/>
	<path d="m99.432 133.04h-27.275l-8.7226 101.67c-0.584 6.8047 4.4609 12.791 11.262 13.374 6.8027 0.584 12.793-4.455 13.377-11.261l7.8164-91.114h6.3907l7.8164 91.114c0.584 6.8057 6.5742 11.845 13.377 11.261 6.8008-0.583 11.846-6.5693 11.262-13.374l-8.2714-96.421c4e-3 -0.103 0.0156-0.2046 0.0156-0.3086v-4.9394z"/>
	<path d="m126.48 111.93v-25.906c0.5918 1.2148 1.1894 2.6088 1.7773 4.2343 2.8184 7.8111 5.1914 20.63 5.1797 40.637 2e-3 5.5147-0.1758 11.573-0.5625 18.225-0.2558 4.4121 3.1113 8.1948 7.5215 8.4526 0.1582 9e-3 0.3164 0.0141 0.4746 0.0141 4.2051 0 7.7305-3.2827 7.9785-7.5356 0.4024-6.9326 0.5879-13.299 0.5899-19.156-0.041-30.182-4.8614-46.886-11.434-56.931-3.2852-4.9844-7.1289-8.1821-10.678-9.9541-1.7949-0.9043-3.4746-1.4405-4.9296-1.7505-1.1172 7.603-4.0352 33.183 4.082 49.669z"/>
	<path d="m76.932 33.663c0 12.426 10.074 22.5 22.5 22.5s22.5-10.074 22.5-22.5c0-1.0952-0.082-2.1714-0.2324-3.2246h-44.533c-0.1524 1.0532-0.2344 2.1294-0.2344 3.2246z"/>
	<path d="m76.316 22.402h-0.418c-1.666 0-3.0156 1.3526-3.0156 3.0186 0 1.668 1.3496 3.0176 3.0156 3.0176h47.064c1.6679 0 3.0175-1.3496 3.0175-3.0176 0-1.666-1.3496-3.0186-3.0175-3.0186h-0.4141c-0.1992-7.686-4.1465-14.436-10.082-18.496v1.8413c0 1.3183-1.0684 2.3886-2.3868 2.3886-1.3183 0-2.3886-1.0703-2.3886-2.3886v-4.3443c-1.8555-0.7099-3.8223-1.1923-5.8731-1.4028v5.7471c0 1.3183-1.0683 2.3886-2.3867 2.3886-1.3203 0-2.3887-1.0703-2.3887-2.3886v-5.7466c-2.0488 0.21-4.0175 0.6929-5.873 1.4033v4.3433c0 1.3183-1.0684 2.3886-2.3887 2.3886-1.3183 0-2.3867-1.0703-2.3867-2.3886v-1.8404c-5.9336 4.0606-9.8809 10.81-10.078 18.496z"/>
</g>
<text x="49.369675" y="22.217709" fill="#000000" font-family="sans-serif" font-size="40px" style="line-height:1.25" xml:space="preserve"><tspan x="49.369675" y="22.217709" font-family="Copperplate">RMULA </tspan></text><text x="209.02385" y="23.088146" fill="#000000" font-family="sans-serif" font-size="40px" style="line-height:1.25" xml:space="preserve"><tspan x="209.02385" y="23.088146" font-family="Copperplate">OR</tspan></text><g transform="matrix(.46128 0 0 .4397 24.655 .74168)">
	<path d="m25 1c-13.233 0-24 10.767-24 24s10.767 24 24 24 24-10.767 24-24-10.767-24-24-24zm0 46c-12.131 0-22-9.869-22-22s9.869-22 22-22 22 9.869 22 22-9.869 22-22 22z"/>
	<rect x="13" y="14" width="24" height="2"/>
	<rect x="13" y="24" width="24" height="2"/>
	<rect x="13" y="34" width="24" height="2"/>
</g><text x="-2.6400001" y="22.30479" fill="#000000" font-family="sans-serif" font-size="40px" style="line-height:1.25" xml:space="preserve"><tspan x="-2.6400001" y="22.30479" font-family="Copperplate">F</tspan></text></svg>
