<?xml version="1.0" encoding="utf-8"?>
<!-- Generator: Adobe Illustrator 23.0.2, SVG Export Plug-In . SVG Version: 6.00 Build 0)  -->
<svg version="1.1" id="Layer_1" xmlns="http://www.w3.org/2000/svg" xmlns:xlink="http://www.w3.org/1999/xlink" x="0px" y="0px"
	 viewBox="0 0 194.3203 248.132" enable-background="new 0 0 194.3203 248.132" xml:space="preserve">
<g>
	<path d="M49.8027,75.2949c7.0586,2.9043,14.1191,3.583,19.8125,3.5977c0.9648-0.001,1.8887-0.0239,2.7715-0.0606v33.1006
		c8.0547-16.3618,5.2402-41.6831,4.1074-49.499c-1.6484,0.2212-4.0879,0.4614-6.8789,0.458
		c-5.8047,0.0376-12.8691-1.1304-17.6641-4.5156c-0.2343-0.1631-0.4609-0.335-0.6875-0.5073l-19.3964,1.0649
		C36.0742,67.2476,42.9687,72.52,49.8027,75.2949z"/>
	<path d="M35.5136,27.415c-2.539-0.0825-4.8339,1.0303-6.3593,2.8272l12.0136-0.2134
		C39.7636,28.4854,37.7636,27.4873,35.5136,27.415z"/>
	<path d="M124.8086,31.148c0.08,0.8276,0.125,1.666,0.125,2.5141c0,8.6001-4.2832,16.2129-10.8223,20.8345l5.1523-0.0864
		l14.4493,0.1313l0.9589-2.2983l0.5-7.5h3v7.5l-0.666,2.3325l18.4278,0.1675l14.6132,0.1972l1.125-2.6972l0.5-7.5h3v7.5
		l-0.7851,2.749l17.6367,0.2383l2.2969-21.6045l-34.9824-3.8867l-4.4161-0.1724v6.1763l-3-1l-1-5.3321l-22.8105-0.8891
		C127.3672,29.7524,126.1992,30.6982,124.8086,31.148z"/>
	<path d="M59.5703,55.4097l25.8828-0.4336c-6.9316-4.5625-11.5215-12.4102-11.5215-21.314c0-0.8481,0.0449-1.686,0.125-2.5132
		c-0.1836-0.0591-0.3633-0.1264-0.5391-0.2026l-16.246,0.7964l-1.0157,0.018v6.9825l-3-1l-1.1093-5.9097l-35.3145,0.627
		l-2.9102,7.0327l-2.0175-6.9453L1.8535,32.7261L0,58.6821l10.2187-0.5615l0.7031-3.6274l-0.5-5h2.25l0.75,5.25l0.1231,3.1948
		L59.5703,55.4097z"/>
	<path d="M99.4316,83.1289c9.1113,0,15.3535-15.8281,17.2305-21.2671h-34.461C84.0781,67.3008,90.3203,83.1289,99.4316,83.1289z"/>
	<path d="M99.4316,133.043H72.1562l-8.7226,101.6689c-0.584,6.8047,4.4609,12.791,11.2617,13.374
		c6.8027,0.584,12.7929-4.455,13.3769-11.2607l7.8164-91.1143h6.3907l7.8164,91.1143c0.584,6.8057,6.5742,11.8447,13.3769,11.2607
		c6.8008-0.583,11.8457-6.5693,11.2617-13.374l-8.2714-96.4209c0.0039-0.103,0.0156-0.2046,0.0156-0.3086v-4.9394H99.4316z"/>
	<path d="M126.4785,111.9326V86.0269c0.5918,1.2148,1.1894,2.6088,1.7773,4.2343c2.8184,7.8111,5.1914,20.6299,5.1797,40.6372
		c0.002,5.5147-0.1758,11.5728-0.5625,18.2247c-0.2558,4.4121,3.1113,8.1948,7.5215,8.4526
		c0.1582,0.0093,0.3164,0.0141,0.4746,0.0141c4.2051,0,7.7305-3.2827,7.9785-7.5356c0.4024-6.9326,0.5879-13.2993,0.5899-19.1558
		c-0.041-30.1816-4.8614-46.8862-11.4336-56.9306c-3.2852-4.9844-7.1289-8.1821-10.6778-9.9541
		c-1.7949-0.9043-3.4746-1.4405-4.9296-1.7505C121.2793,69.8662,118.3613,95.4458,126.4785,111.9326z"/>
	<path d="M76.9316,33.6631c0,12.4258,10.0742,22.5,22.5,22.5s22.5-10.0742,22.5-22.5c0-1.0952-0.082-2.1714-0.2324-3.2246H77.166
		C77.0136,31.4917,76.9316,32.5679,76.9316,33.6631z"/>
	<path d="M76.3164,22.4023h-0.418c-1.666,0-3.0156,1.3526-3.0156,3.0186c0,1.668,1.3496,3.0176,3.0156,3.0176h0.4023h46.2618h0.4004
		c1.6679,0,3.0175-1.3496,3.0175-3.0176c0-1.666-1.3496-3.0186-3.0175-3.0186h-0.4141c-0.1992-7.686-4.1465-14.4365-10.082-18.4965
		v1.8413c0,1.3183-1.0684,2.3886-2.3868,2.3886c-1.3183,0-2.3886-1.0703-2.3886-2.3886V1.4028
		c-1.8555-0.7099-3.8223-1.1923-5.8731-1.4028v5.7471c0,1.3183-1.0683,2.3886-2.3867,2.3886c-1.3203,0-2.3887-1.0703-2.3887-2.3886
		V0.0005c-2.0488,0.21-4.0175,0.6929-5.873,1.4033v4.3433c0,1.3183-1.0684,2.3886-2.3887,2.3886
		c-1.3183,0-2.3867-1.0703-2.3867-2.3886V3.9067C80.4609,7.9673,76.5136,14.7168,76.3164,22.4023z"/>
</g>
</svg>
